<svg width="512" height="512" viewBox="0 0 512 512" fill="none" xmlns="http://www.w3.org/2000/svg">
<rect width="512" height="512" rx="60" fill="url(#paint0_linear_9_1357)"/>
<circle opacity="0.35" cx="256" cy="256" r="210" fill="url(#paint1_radial_9_1357)"/>
<path fill-rule="evenodd" clip-rule="evenodd" d="M153.797 153.797C161.564 146.03 172.099 141.667 183.083 141.667H212.25C219.016 141.667 224.5 147.151 224.5 153.917C224.5 160.682 219.016 166.167 212.25 166.167H183.083C178.597 166.167 174.294 167.949 171.121 171.121C167.949 174.294 166.167 178.597 166.167 183.083V358.083C166.167 362.57 167.949 366.873 171.121 370.045C174.294 373.218 178.597 375 183.083 375H328.917C333.403 375 337.706 373.218 340.879 370.045C344.051 366.873 345.833 362.57 345.833 358.083V183.083C345.833 178.597 344.051 174.294 340.879 171.121C337.706 167.949 333.403 166.167 328.917 166.167H299.75C292.985 166.167 287.5 160.682 287.5 153.917C287.5 147.151 292.985 141.667 299.75 141.667H328.917C339.901 141.667 350.436 146.03 358.203 153.797C365.97 161.564 370.333 172.099 370.333 183.083V358.083C370.333 369.068 365.97 379.602 358.203 387.369C350.436 395.136 339.901 399.5 328.917 399.5H183.083C172.099 399.5 161.564 395.136 153.797 387.369C146.03 379.602 141.667 369.068 141.667 358.083V183.083C141.667 172.099 146.03 161.564 153.797 153.797Z" fill="white"/>
<path fill-rule="evenodd" clip-rule="evenodd" d="M241.417 137C232.074 137 224.5 144.574 224.5 153.917C224.5 163.259 232.074 170.833 241.417 170.833H270.583C279.926 170.833 287.5 163.259 287.5 153.917C287.5 144.574 279.926 137 270.583 137H241.417ZM200 153.917C200 131.043 218.543 112.5 241.417 112.5H270.583C293.457 112.5 312 131.043 312 153.917C312 176.79 293.457 195.333 270.583 195.333H241.417C218.543 195.333 200 176.79 200 153.917Z" fill="white"/>
<path fill-rule="evenodd" clip-rule="evenodd" d="M200 256C200 249.235 205.485 243.75 212.25 243.75H212.396C219.161 243.75 224.646 249.235 224.646 256C224.646 262.765 219.161 268.25 212.396 268.25H212.25C205.485 268.25 200 262.765 200 256Z" fill="white"/>
<path fill-rule="evenodd" clip-rule="evenodd" d="M258.333 256C258.333 249.235 263.818 243.75 270.583 243.75H299.75C306.516 243.75 312 249.235 312 256C312 262.765 306.516 268.25 299.75 268.25H270.583C263.818 268.25 258.333 262.765 258.333 256Z" fill="white"/>
<path fill-rule="evenodd" clip-rule="evenodd" d="M200 314.333C200 307.568 205.485 302.083 212.25 302.083H212.396C219.161 302.083 224.646 307.568 224.646 314.333C224.646 321.099 219.161 326.583 212.396 326.583H212.25C205.485 326.583 200 321.099 200 314.333Z" fill="white"/>
<path fill-rule="evenodd" clip-rule="evenodd" d="M258.333 314.333C258.333 307.568 263.818 302.083 270.583 302.083H299.75C306.516 302.083 312 307.568 312 314.333C312 321.099 306.516 326.583 299.75 326.583H270.583C263.818 326.583 258.333 321.099 258.333 314.333Z" fill="white"/>
<defs>
<linearGradient id="paint0_linear_9_1357" x1="0" y1="0" x2="512" y2="512" gradientUnits="userSpaceOnUse">
<stop stop-color="#9C4DF9"/>
<stop offset="1" stop-color="#00B3F9"/>
</linearGradient>
<radialGradient id="paint1_radial_9_1357" cx="0" cy="0" r="1" gradientUnits="userSpaceOnUse" gradientTransform="translate(256 256) rotate(90) scale(210)">
<stop stop-color="white"/>
<stop offset="1" stop-color="white" stop-opacity="0"/>
</radialGradient>
</defs>
</svg>
