<svg width="256" height="256" viewBox="0 0 256 256" fill="none" xmlns="http://www.w3.org/2000/svg">
<g clip-path="url(#clip0_34_5405)">
<rect x="7" y="11" width="244" height="244" rx="122" fill="#D9D9D9"/>
<rect width="256" height="265" fill="black"/>
<path style="mix-blend-mode:screen" d="M179.302 308C283.131 308 367.302 223.83 367.302 120C367.302 16.1705 283.131 -68 179.302 -68C75.4722 -68 -8.69824 16.1705 -8.69824 120C-8.69824 223.83 75.4722 308 179.302 308Z" fill="url(#paint0_radial_34_5405)"/>
<path style="mix-blend-mode:screen" d="M75.105 295.483C155.244 295.483 220.21 230.517 220.21 150.378C220.21 70.2382 155.244 5.27246 75.105 5.27246C-5.03431 5.27246 -70 70.2382 -70 150.378C-70 230.517 -5.03431 295.483 75.105 295.483Z" fill="url(#paint1_radial_34_5405)"/>
<path style="mix-blend-mode:screen" d="M29.555 218.415C46.608 218.415 60.4322 204.59 60.4322 187.537C60.4322 170.484 46.608 156.66 29.555 156.66C12.5019 156.66 -1.32227 170.484 -1.32227 187.537C-1.32227 204.59 12.5019 218.415 29.555 218.415Z" fill="url(#paint2_radial_34_5405)"/>
<path style="mix-blend-mode:screen" d="M201.931 166.358C217.67 166.358 230.428 153.599 230.428 137.86C230.428 122.122 217.67 109.363 201.931 109.363C186.192 109.363 173.434 122.122 173.434 137.86C173.434 153.599 186.192 166.358 201.931 166.358Z" fill="url(#paint3_radial_34_5405)"/>
<path style="mix-blend-mode:screen" d="M201.931 166.358C217.67 166.358 230.428 153.599 230.428 137.86C230.428 122.122 217.67 109.363 201.931 109.363C186.192 109.363 173.434 122.122 173.434 137.86C173.434 153.599 186.192 166.358 201.931 166.358Z" fill="url(#paint4_radial_34_5405)"/>
<path style="mix-blend-mode:screen" d="M220.207 80.3468C240.932 70.252 249.55 45.2676 239.455 24.5426C229.36 3.81757 204.376 -4.79986 183.651 5.29497C162.926 15.3898 154.308 40.3741 164.403 61.0991C174.498 81.8241 199.482 90.4416 220.207 80.3468Z" fill="url(#paint5_radial_34_5405)"/>
<g style="mix-blend-mode:overlay">
<path d="M128.999 244C65.5898 244 13.999 192.409 13.999 129C13.999 65.5908 65.5898 14 128.999 14C192.408 14 243.999 65.5908 243.999 129C243.999 192.409 192.408 244 128.999 244ZM128.999 15.2044C66.2457 15.2044 15.1916 66.2586 15.1916 129.012C15.1916 191.765 66.2457 242.819 128.999 242.819C191.752 242.819 242.806 191.765 242.806 129.012C242.806 66.2586 191.752 15.2044 128.999 15.2044Z" fill="white"/>
</g>
<g filter="url(#filter0_d_34_5405)">
<rect x="93" y="90" width="20" height="20" fill="#FF5B8C"/>
<rect x="111" y="54" width="33" height="20" fill="#0085E6"/>
<rect x="93" y="127" width="20" height="20" fill="#0085E6"/>
<rect x="93" y="163" width="20" height="20" fill="#D89513"/>
<path d="M177.778 61.3333H147.222V55.7778C147.222 55.0411 146.93 54.3345 146.409 53.8136C145.888 53.2927 145.181 53 144.444 53H111.111C110.374 53 109.668 53.2927 109.147 53.8136C108.626 54.3345 108.333 55.0411 108.333 55.7778V61.3333H77.7778C77.0411 61.3333 76.3345 61.626 75.8136 62.1469C75.2927 62.6679 75 63.3744 75 64.1111V200.222C75 200.959 75.2927 201.665 75.8136 202.186C76.3345 202.707 77.0411 203 77.7778 203H177.778C178.514 203 179.221 202.707 179.742 202.186C180.263 201.665 180.556 200.959 180.556 200.222V64.1111C180.556 63.3744 180.263 62.6679 179.742 62.1469C179.221 61.626 178.514 61.3333 177.778 61.3333ZM113.889 58.5556H141.667V69.6667H113.889V58.5556ZM175 197.444H80.5556V66.8889H108.333V72.4444C108.333 73.1812 108.626 73.8877 109.147 74.4086C109.668 74.9296 110.374 75.2222 111.111 75.2222H144.444C145.181 75.2222 145.888 74.9296 146.409 74.4086C146.93 73.8877 147.222 73.1812 147.222 72.4444V66.8889H175V197.444Z" fill="#EBEBEB"/>
<path d="M111.111 89.1113H94.4448C93.7081 89.1113 93.0015 89.404 92.4806 89.9249C91.9596 90.4459 91.667 91.1524 91.667 91.8891V108.556C91.667 109.292 91.9596 109.999 92.4806 110.52C93.0015 111.041 93.7081 111.334 94.4448 111.334H111.111C111.848 111.334 112.555 111.041 113.076 110.52C113.597 109.999 113.889 109.292 113.889 108.556V91.8891C113.889 91.1524 113.597 90.4459 113.076 89.9249C112.555 89.404 111.848 89.1113 111.111 89.1113ZM108.334 105.778H97.2225V94.6669H108.334V105.778Z" fill="#EBEBEB"/>
<path d="M111.111 125.222H94.4448C93.7081 125.222 93.0015 125.515 92.4806 126.036C91.9596 126.557 91.667 127.263 91.667 128V144.667C91.667 145.403 91.9596 146.11 92.4806 146.631C93.0015 147.152 93.7081 147.444 94.4448 147.444H111.111C111.848 147.444 112.555 147.152 113.076 146.631C113.597 146.11 113.889 145.403 113.889 144.667V128C113.889 127.263 113.597 126.557 113.076 126.036C112.555 125.515 111.848 125.222 111.111 125.222ZM108.334 141.889H97.2225V130.778H108.334V141.889Z" fill="#EBEBEB"/>
<path d="M111.111 161.333H94.4448C93.7081 161.333 93.0015 161.626 92.4806 162.147C91.9596 162.668 91.667 163.375 91.667 164.111V180.778C91.667 181.515 91.9596 182.221 92.4806 182.742C93.0015 183.263 93.7081 183.556 94.4448 183.556H111.111C111.848 183.556 112.555 183.263 113.076 182.742C113.597 182.221 113.889 181.515 113.889 180.778V164.111C113.889 163.375 113.597 162.668 113.076 162.147C112.555 161.626 111.848 161.333 111.111 161.333ZM108.334 178H97.2225V166.889H108.334V178Z" fill="#EBEBEB"/>
<path d="M121.375 91C120.745 91 120.141 91.3161 119.696 91.8787C119.25 92.4413 119 93.2044 119 94C119 94.7956 119.25 95.5587 119.696 96.1213C120.141 96.6839 120.745 97 121.375 97H154.625C155.255 97 155.859 96.6839 156.304 96.1213C156.75 95.5587 157 94.7956 157 94C157 93.2044 156.75 92.4413 156.304 91.8787C155.859 91.3161 155.255 91 154.625 91H121.375Z" fill="#FF5B8C"/>
<path d="M121.417 109H145.583C146.224 109 146.839 108.684 147.292 108.121C147.745 107.559 148 106.796 148 106C148 105.204 147.745 104.441 147.292 103.879C146.839 103.316 146.224 103 145.583 103H121.417C120.776 103 120.161 103.316 119.708 103.879C119.255 104.441 119 105.204 119 106C119 106.796 119.255 107.559 119.708 108.121C120.161 108.684 120.776 109 121.417 109Z" fill="#FF5B8C"/>
<path d="M161.111 125.222H122.222C121.485 125.222 120.779 125.515 120.258 126.036C119.737 126.557 119.444 127.263 119.444 128C119.444 128.737 119.737 129.443 120.258 129.964C120.779 130.485 121.485 130.778 122.222 130.778H161.111C161.848 130.778 162.554 130.485 163.075 129.964C163.596 129.443 163.889 128.737 163.889 128C163.889 127.263 163.596 126.557 163.075 126.036C162.554 125.515 161.848 125.222 161.111 125.222Z" fill="#0085E6"/>
<path d="M122.222 147.444H150C150.737 147.444 151.443 147.152 151.964 146.631C152.485 146.11 152.778 145.403 152.778 144.666C152.778 143.93 152.485 143.223 151.964 142.702C151.443 142.181 150.737 141.889 150 141.889H122.222C121.485 141.889 120.779 142.181 120.258 142.702C119.737 143.223 119.444 143.93 119.444 144.666C119.444 145.403 119.737 146.11 120.258 146.631C120.779 147.152 121.485 147.444 122.222 147.444Z" fill="#0085E6"/>
<path d="M161.111 161.333H122.222C121.485 161.333 120.779 161.626 120.258 162.147C119.737 162.668 119.444 163.375 119.444 164.111C119.444 164.848 119.737 165.555 120.258 166.075C120.779 166.596 121.485 166.889 122.222 166.889H161.111C161.848 166.889 162.554 166.596 163.075 166.075C163.596 165.555 163.889 164.848 163.889 164.111C163.889 163.375 163.596 162.668 163.075 162.147C162.554 161.626 161.848 161.333 161.111 161.333Z" fill="#FFBE40"/>
<path d="M150 178H122.222C121.485 178 120.779 178.293 120.258 178.814C119.737 179.335 119.444 180.041 119.444 180.778C119.444 181.514 119.737 182.221 120.258 182.742C120.779 183.263 121.485 183.556 122.222 183.556H150C150.737 183.556 151.443 183.263 151.964 182.742C152.485 182.221 152.778 181.514 152.778 180.778C152.778 180.041 152.485 179.335 151.964 178.814C151.443 178.293 150.737 178 150 178Z" fill="#FFBE40"/>
</g>
</g>
<defs>
<filter id="filter0_d_34_5405" x="23" y="29" width="210" height="210" filterUnits="userSpaceOnUse" color-interpolation-filters="sRGB">
<feFlood flood-opacity="0" result="BackgroundImageFix"/>
<feColorMatrix in="SourceAlpha" type="matrix" values="0 0 0 0 0 0 0 0 0 0 0 0 0 0 0 0 0 0 127 0" result="hardAlpha"/>
<feOffset dy="6"/>
<feGaussianBlur stdDeviation="15"/>
<feComposite in2="hardAlpha" operator="out"/>
<feColorMatrix type="matrix" values="0 0 0 0 0 0 0 0 0 0 0 0 0 0 0 0 0 0 0.4 0"/>
<feBlend mode="normal" in2="BackgroundImageFix" result="effect1_dropShadow_34_5405"/>
<feBlend mode="normal" in="SourceGraphic" in2="effect1_dropShadow_34_5405" result="shape"/>
</filter>
<radialGradient id="paint0_radial_34_5405" cx="0" cy="0" r="1" gradientUnits="userSpaceOnUse" gradientTransform="translate(179.302 120) scale(188)">
<stop offset="0.1" stop-color="#CE4140"/>
<stop offset="0.19" stop-color="#A13232"/>
<stop offset="0.28" stop-color="#762524"/>
<stop offset="0.38" stop-color="#521919"/>
<stop offset="0.48" stop-color="#341010"/>
<stop offset="0.58" stop-color="#1D0909"/>
<stop offset="0.7" stop-color="#0C0403"/>
<stop offset="0.83" stop-color="#030000"/>
<stop offset="0.99"/>
</radialGradient>
<radialGradient id="paint1_radial_34_5405" cx="0" cy="0" r="1" gradientUnits="userSpaceOnUse" gradientTransform="translate(75.105 150.378) scale(145.105 145.105)">
<stop offset="0.1" stop-color="#6300EB"/>
<stop offset="0.14" stop-color="#5900D3"/>
<stop offset="0.22" stop-color="#4400A2"/>
<stop offset="0.31" stop-color="#320076"/>
<stop offset="0.41" stop-color="#220052"/>
<stop offset="0.5" stop-color="#150034"/>
<stop offset="0.61" stop-color="#0C001D"/>
<stop offset="0.71" stop-color="#05000C"/>
<stop offset="0.84" stop-color="#010003"/>
<stop offset="0.99"/>
</radialGradient>
<radialGradient id="paint2_radial_34_5405" cx="0" cy="0" r="1" gradientUnits="userSpaceOnUse" gradientTransform="translate(29.555 187.537) scale(30.8772)">
<stop offset="0.1" stop-color="#6300EB"/>
<stop offset="0.14" stop-color="#5900D3"/>
<stop offset="0.22" stop-color="#4400A2"/>
<stop offset="0.31" stop-color="#320076"/>
<stop offset="0.41" stop-color="#220052"/>
<stop offset="0.5" stop-color="#150034"/>
<stop offset="0.61" stop-color="#0C001D"/>
<stop offset="0.71" stop-color="#05000C"/>
<stop offset="0.84" stop-color="#010003"/>
<stop offset="0.99"/>
</radialGradient>
<radialGradient id="paint3_radial_34_5405" cx="0" cy="0" r="1" gradientUnits="userSpaceOnUse" gradientTransform="translate(201.931 137.86) scale(28.4974 28.4975)">
<stop offset="0.1" stop-color="#CE4140"/>
<stop offset="0.19" stop-color="#A13232"/>
<stop offset="0.28" stop-color="#762524"/>
<stop offset="0.38" stop-color="#521919"/>
<stop offset="0.48" stop-color="#341010"/>
<stop offset="0.58" stop-color="#1D0909"/>
<stop offset="0.7" stop-color="#0C0403"/>
<stop offset="0.83" stop-color="#030000"/>
<stop offset="0.99"/>
</radialGradient>
<radialGradient id="paint4_radial_34_5405" cx="0" cy="0" r="1" gradientUnits="userSpaceOnUse" gradientTransform="translate(201.931 137.86) scale(28.4974 28.4975)">
<stop offset="0.1" stop-color="#CE4140"/>
<stop offset="0.19" stop-color="#A13232"/>
<stop offset="0.28" stop-color="#762524"/>
<stop offset="0.38" stop-color="#521919"/>
<stop offset="0.48" stop-color="#341010"/>
<stop offset="0.58" stop-color="#1D0909"/>
<stop offset="0.7" stop-color="#0C0403"/>
<stop offset="0.83" stop-color="#030000"/>
<stop offset="0.99"/>
</radialGradient>
<radialGradient id="paint5_radial_34_5405" cx="0" cy="0" r="1" gradientUnits="userSpaceOnUse" gradientTransform="translate(201.909 42.8644) scale(41.7407 41.7407)">
<stop offset="0.1" stop-color="#CE4140"/>
<stop offset="0.19" stop-color="#A13232"/>
<stop offset="0.28" stop-color="#762524"/>
<stop offset="0.38" stop-color="#521919"/>
<stop offset="0.48" stop-color="#341010"/>
<stop offset="0.58" stop-color="#1D0909"/>
<stop offset="0.7" stop-color="#0C0403"/>
<stop offset="0.83" stop-color="#030000"/>
<stop offset="0.99"/>
</radialGradient>
<clipPath id="clip0_34_5405">
<rect width="256" height="256" rx="128" fill="white"/>
</clipPath>
</defs>
</svg>
